<svg width="110" height="17" viewBox="0 0 110 17" fill="none" xmlns="http://www.w3.org/2000/svg">
<path d="M3.84762 16.032C3.78158 16.032 3.71555 15.9993 3.64951 15.9665C3.55046 15.901 3.48442 15.7372 3.51744 15.6061L4.97023 10.2326L0.611846 6.72675C0.479774 6.66122 0.446756 6.4974 0.479774 6.36634C0.512792 6.23528 0.644864 6.13698 0.776937 6.13698L6.39001 5.8421L8.40412 0.632443C8.47015 0.534147 8.60222 0.435852 8.7343 0.435852C8.86637 0.435852 8.99844 0.534147 9.03146 0.632443L11.0456 5.8421L16.6586 6.13698C16.7907 6.13698 16.9228 6.23528 16.9558 6.36634C16.9888 6.4974 16.9558 6.62846 16.8567 6.72675L12.4984 10.2326L13.9512 15.6061C13.9842 15.7372 13.9512 15.8682 13.8191 15.9665C13.72 16.032 13.5549 16.0648 13.4559 15.9665L8.7343 12.9521L4.01271 15.9665C3.94667 16.032 3.91366 16.032 3.84762 16.032Z" fill="#87A545"/>
<path d="M26.9484 16.032C26.8824 16.032 26.8163 15.9993 26.7503 15.9665C26.6512 15.901 26.5852 15.7372 26.6182 15.6061L28.071 10.2326L23.7126 6.72675C23.5805 6.66122 23.5475 6.4974 23.5805 6.36634C23.6136 6.23528 23.7456 6.13698 23.8777 6.13698L29.4908 5.8421L31.5049 0.632443C31.5709 0.534147 31.703 0.435852 31.8351 0.435852C31.9671 0.435852 32.0992 0.534147 32.1322 0.632443L34.1463 5.8421L39.7594 6.13698C39.8915 6.13698 40.0236 6.23528 40.0566 6.36634C40.0896 6.4974 40.0566 6.62846 39.9575 6.72675L35.5991 10.2326L37.0519 15.6061C37.0849 15.7372 37.0519 15.8682 36.9199 15.9665C36.8208 16.032 36.6557 16.0648 36.5567 15.9665L31.8351 12.9521L27.1135 15.9665C27.0474 16.032 27.0144 16.032 26.9484 16.032Z" fill="#87A545"/>
<path d="M50.0484 16.032C49.9824 16.032 49.9163 15.9993 49.8503 15.9665C49.7512 15.901 49.6852 15.7372 49.7182 15.6061L51.171 10.2326L46.8126 6.72675C46.6805 6.66122 46.6475 6.4974 46.6805 6.36634C46.7136 6.23528 46.8456 6.13698 46.9777 6.13698L52.5908 5.8421L54.6049 0.632443C54.6709 0.534147 54.803 0.435852 54.9351 0.435852C55.0671 0.435852 55.1992 0.534147 55.2322 0.632443L57.2463 5.8421L62.8594 6.13698C62.9915 6.13698 63.1236 6.23528 63.1566 6.36634C63.1896 6.4974 63.1566 6.62846 63.0575 6.72675L58.6991 10.2326L60.1519 15.6061C60.1849 15.7372 60.1519 15.8682 60.0199 15.9665C59.9208 16.032 59.7557 16.0648 59.6567 15.9665L54.9351 12.9521L50.2135 15.9665C50.1474 16.032 50.1144 16.032 50.0484 16.032Z" fill="#87A545"/>
<path d="M73.1492 16.032C73.0831 16.032 73.0171 15.9993 72.9511 15.9665C72.852 15.901 72.786 15.7372 72.819 15.6061L74.2718 10.2326L69.9134 6.72675C69.7813 6.66122 69.7483 6.4974 69.7813 6.36634C69.8143 6.23528 69.9464 6.13698 70.0785 6.13698L75.6916 5.8421L77.7057 0.632443C77.7717 0.534147 77.9038 0.435852 78.0358 0.435852C78.1679 0.435852 78.3 0.534147 78.333 0.632443L80.3471 5.8421L85.9602 6.13698C86.0923 6.13698 86.2243 6.23528 86.2573 6.36634C86.2904 6.4974 86.2573 6.62846 86.1583 6.72675L81.7999 10.2326L83.2527 15.6061C83.2857 15.7372 83.2527 15.8682 83.1206 15.9665C83.0216 16.032 82.8565 16.0648 82.7574 15.9665L78.0358 12.9521L73.3143 15.9665C73.2482 16.032 73.2152 16.032 73.1492 16.032Z" fill="#87A545"/>
<path d="M96.2499 16.032C96.1839 16.032 96.1179 15.9993 96.0518 15.9665C95.9528 15.901 95.8867 15.7372 95.9198 15.6061L97.3725 10.2326L93.0142 6.72675C92.8821 6.66122 92.8491 6.4974 92.8821 6.36634C92.9151 6.23528 93.0472 6.13698 93.1793 6.13698L98.7923 5.8421L100.806 0.632443C100.872 0.534147 101.005 0.435852 101.137 0.435852C101.269 0.435852 101.401 0.534147 101.434 0.632443L103.448 5.8421L109.061 6.13698C109.193 6.13698 109.325 6.23528 109.358 6.36634C109.391 6.4974 109.358 6.62846 109.259 6.72675L104.901 10.2326L106.353 15.6061C106.386 15.7372 106.353 15.8682 106.221 15.9665C106.122 16.032 105.957 16.0648 105.858 15.9665L101.137 12.9521L96.415 15.9665C96.349 16.032 96.316 16.032 96.2499 16.032Z" fill="#D0D0D0"/>
</svg>
