<svg width="121" height="18" viewBox="0 0 121 18" fill="none" xmlns="http://www.w3.org/2000/svg">
<path d="M3.88895 17.8154C3.81619 17.8154 3.74342 17.7792 3.67066 17.7431C3.56151 17.6709 3.48874 17.4904 3.52512 17.346L5.12596 11.425L0.323448 7.56184C0.177917 7.48963 0.141535 7.30911 0.177917 7.16469C0.2143 7.02028 0.359831 6.91197 0.505362 6.91197L6.69042 6.58703L8.90976 0.846506C8.98253 0.738195 9.12806 0.629883 9.27359 0.629883C9.41912 0.629883 9.56465 0.738195 9.60103 0.846506L11.8204 6.58703L18.0054 6.91197C18.151 6.91197 18.2965 7.02028 18.3329 7.16469C18.3693 7.30911 18.3329 7.45353 18.2237 7.56184L13.4212 11.425L15.0221 17.346C15.0584 17.4904 15.0221 17.6348 14.8765 17.7431C14.7674 17.8154 14.5855 17.8515 14.4763 17.7431L9.27359 14.4216L4.07087 17.7431C3.9981 17.8154 3.96172 17.8154 3.88895 17.8154Z" fill="#87A545"/>
<path d="M29.3437 17.8154C29.271 17.8154 29.1982 17.7792 29.1254 17.7431C29.0163 17.6709 28.9435 17.4904 28.9799 17.346L30.5807 11.425L25.7782 7.56184C25.6327 7.48963 25.5963 7.30911 25.6327 7.16469C25.6691 7.02028 25.8146 6.91197 25.9601 6.91197L32.1452 6.58703L34.3645 0.846506C34.4373 0.738195 34.5828 0.629883 34.7284 0.629883C34.8739 0.629883 35.0194 0.738195 35.0558 0.846506L37.2752 6.58703L43.4602 6.91197C43.6057 6.91197 43.7513 7.02028 43.7877 7.16469C43.824 7.30911 43.7877 7.45353 43.6785 7.56184L38.876 11.425L40.4768 17.346C40.5132 17.4904 40.4768 17.6348 40.3313 17.7431C40.2221 17.8154 40.0402 17.8515 39.9311 17.7431L34.7284 14.4216L29.5256 17.7431C29.4529 17.8154 29.4165 17.8154 29.3437 17.8154Z" fill="#87A545"/>
<path d="M54.7976 17.8154C54.7249 17.8154 54.6521 17.7792 54.5793 17.7431C54.4702 17.6709 54.3974 17.4904 54.4338 17.346L56.0347 11.425L51.2321 7.56184C51.0866 7.48963 51.0502 7.30911 51.0866 7.16469C51.123 7.02028 51.2685 6.91197 51.4141 6.91197L57.5991 6.58703L59.8185 0.846506C59.8912 0.738195 60.0367 0.629883 60.1823 0.629883C60.3278 0.629883 60.4733 0.738195 60.5097 0.846506L62.7291 6.58703L68.9141 6.91197C69.0597 6.91197 69.2052 7.02028 69.2416 7.16469C69.2779 7.30911 69.2416 7.45353 69.1324 7.56184L64.3299 11.425L65.9307 17.346C65.9671 17.4904 65.9307 17.6348 65.7852 17.7431C65.6761 17.8154 65.4942 17.8515 65.385 17.7431L60.1823 14.4216L54.9796 17.7431C54.9068 17.8154 54.8704 17.8154 54.7976 17.8154Z" fill="#87A545"/>
<path d="M80.2524 17.8154C80.1797 17.8154 80.1069 17.7792 80.0341 17.7431C79.925 17.6709 79.8522 17.4904 79.8886 17.346L81.4894 11.425L76.6869 7.56184C76.5414 7.48963 76.505 7.30911 76.5414 7.16469C76.5778 7.02028 76.7233 6.91197 76.8688 6.91197L83.0539 6.58703L85.2732 0.846506C85.346 0.738195 85.4915 0.629883 85.6371 0.629883C85.7826 0.629883 85.9281 0.738195 85.9645 0.846506L88.1838 6.58703L94.3689 6.91197C94.5144 6.91197 94.66 7.02028 94.6963 7.16469C94.7327 7.30911 94.6963 7.45353 94.5872 7.56184L89.7847 11.425L91.3855 17.346C91.4219 17.4904 91.3855 17.6348 91.24 17.7431C91.1308 17.8154 90.9489 17.8515 90.8398 17.7431L85.6371 14.4216L80.4343 17.7431C80.3616 17.8154 80.3252 17.8154 80.2524 17.8154Z" fill="#87A545"/>
<path d="M105.707 17.8154C105.634 17.8154 105.562 17.7792 105.489 17.7431C105.38 17.6709 105.307 17.4904 105.343 17.346L106.944 11.425L102.142 7.56184C101.996 7.48963 101.96 7.30911 101.996 7.16469C102.033 7.02028 102.178 6.91197 102.324 6.91197L108.509 6.58703L110.728 0.846506C110.801 0.738195 110.946 0.629883 111.092 0.629883C111.237 0.629883 111.383 0.738195 111.419 0.846506L113.639 6.58703L119.824 6.91197C119.969 6.91197 120.115 7.02028 120.151 7.16469C120.188 7.30911 120.151 7.45353 120.042 7.56184L115.239 11.425L116.84 17.346C116.877 17.4904 116.84 17.6348 116.695 17.7431C116.586 17.8154 116.404 17.8515 116.295 17.7431L111.092 14.4216L105.889 17.7431C105.816 17.8154 105.78 17.8154 105.707 17.8154Z" fill="#87A545"/>
</svg>
